<?xml version="1.0" standalone="no"?>
<!DOCTYPE svg PUBLIC "-//W3C//DTD SVG 20010904//EN"
 "http://www.w3.org/TR/2001/REC-SVG-20010904/DTD/svg10.dtd">
<svg version="1.0" xmlns="http://www.w3.org/2000/svg"
 width="192.000000pt" height="192.000000pt" viewBox="0 0 192.000000 192.000000"
 preserveAspectRatio="xMidYMid meet">
<metadata>
Created by potrace 1.14, written by Peter Selinger 2001-2017
</metadata>
<g transform="translate(0.000000,192.000000) scale(0.100000,-0.100000)"
fill="#000000" stroke="none">
<path d="M1449 1905 c-15 -8 -43 -37 -63 -65 -20 -28 -43 -53 -51 -56 -8 -3
-40 3 -72 14 -32 11 -74 23 -93 27 -57 11 -284 14 -326 5 -22 -5 -54 -11 -72
-15 -38 -6 -144 -45 -193 -70 -49 -25 -229 -159 -259 -192 -120 -132 -208
-305 -235 -458 -26 -143 -1 -385 50 -500 8 -16 21 -47 29 -68 18 -45 80 -141
118 -181 25 -28 26 -35 23 -98 l-4 -68 39 -20 c68 -35 123 -48 184 -45 47 3
69 -1 106 -20 102 -52 361 -84 505 -64 138 20 189 39 332 125 158 95 241 182
327 345 66 123 98 269 100 444 0 111 -23 251 -50 307 -19 36 -18 57 6 110 11
25 22 66 24 92 9 87 -56 124 -142 82 l-44 -21 -44 49 c-34 36 -43 53 -38 69
10 30 12 147 3 186 -16 73 -101 118 -160 86z"/>
</g>
</svg>
